<?xml version="1.0" encoding="UTF-8" standalone="no"?>
<svg
   xmlns:dc="http://purl.org/dc/elements/1.1/"
   xmlns:cc="http://creativecommons.org/ns#"
   xmlns:rdf="http://www.w3.org/1999/02/22-rdf-syntax-ns#"
   xmlns:svg="http://www.w3.org/2000/svg"
   xmlns="http://www.w3.org/2000/svg"
   xmlns:sodipodi="http://sodipodi.sourceforge.net/DTD/sodipodi-0.dtd"
   xmlns:inkscape="http://www.inkscape.org/namespaces/inkscape"
   inkscape:version="1.0 (4035a4fb49, 2020-05-01)"
   sodipodi:docname="icon_2.svg"
   id="svg10"
   version="1.1"
   viewBox="0 0 44 40"
   height="40"
   width="44">
  <metadata
     id="metadata16">
    <rdf:RDF>
      <cc:Work
         rdf:about="">
        <dc:format>image/svg+xml</dc:format>
        <dc:type
           rdf:resource="http://purl.org/dc/dcmitype/StillImage" />
      </cc:Work>
    </rdf:RDF>
  </metadata>
  <defs
     id="defs14" />
  <sodipodi:namedview
     inkscape:current-layer="svg10"
     inkscape:window-maximized="0"
     inkscape:window-y="0"
     inkscape:window-x="0"
     inkscape:cy="23.764706"
     inkscape:cx="22"
     inkscape:zoom="21.25"
     showgrid="false"
     id="namedview12"
     inkscape:window-height="788"
     inkscape:window-width="1446"
     inkscape:pageshadow="2"
     inkscape:pageopacity="0"
     guidetolerance="10"
     gridtolerance="10"
     objecttolerance="10"
     borderopacity="1"
     bordercolor="#666666"
     pagecolor="#ffffff" />
  <g
     id="g8">
    <g
       id="g6">
      <path
         id="path2"
         d="M43.287 11.666L21.851 23.227.414 11.666 21.85.106zm-3.985 5.882l3.985 2.149-21.436 11.556L.414 19.697l3.985-2.15 17.452 9.41zm0 8.025l3.985 2.148-21.436 11.562L.414 27.721l3.985-2.148 17.452 9.412z" />
      <path
         id="path4"
         d="M43.287 11.666L21.851 23.227.414 11.666 21.85.106zm-3.985 5.882l3.985 2.149-21.436 11.556L.414 19.697l3.985-2.15 17.452 9.41zm0 8.025l3.985 2.148-21.436 11.562L.414 27.721l3.985-2.148 17.452 9.412z"
         fill="#c7b299" />
    </g>
  </g>
  <path
     id="path18"
     d="M 11.294118,17.501148 C 5.5094118,14.380471 0.7075395,11.79144 0.62329038,11.747745 L 0.47011017,11.668299 11.161133,5.9027708 21.852156,0.13724264 32.490784,5.8729242 c 5.851245,3.154625 10.655709,5.7518848 10.676585,5.7716898 0.03424,0.03248 -21.225907,11.532797 -21.317195,11.531174 -0.02113,-3.76e-4 -4.77135,-2.553964 -10.556056,-5.67464 z"
     style="fill:#555555;stroke-width:0.0470588" />
  <path
     id="path20"
     d="M 11.185021,25.470879 C 5.3179652,22.308269 0.51788837,19.709409 0.5181833,19.695634 0.51864656,19.673997 2.0473435,18.839643 3.858286,17.872625 l 0.5469816,-0.29208 8.7240454,4.703784 8.724046,4.703785 8.725145,-4.704337 8.725145,-4.704336 1.946998,1.045574 c 1.070848,0.575065 1.947261,1.056161 1.947583,1.069103 4.24e-4,0.01729 -15.822932,8.563356 -20.843858,11.257597 l -0.501978,0.269363 z"
     style="fill:#555555;stroke-width:0.0470588" />
  <path
     id="path22"
     d="M 11.317092,33.566268 C 5.5197501,30.437913 0.7088588,27.842192 0.62622216,27.797999 L 0.47597372,27.717649 2.4320312,26.664644 4.3880886,25.61164 4.5352208,25.68283 c 0.080923,0.03915 4.0012498,2.15081 8.7118382,4.692567 7.572953,4.086245 8.578566,4.616333 8.684407,4.577803 0.06584,-0.02397 3.930723,-2.099085 8.588638,-4.611376 4.657914,-2.512291 8.544024,-4.603609 8.635801,-4.647375 l 0.166866,-0.07957 1.941805,1.045842 c 1.067994,0.575213 1.924488,1.062078 1.903321,1.081923 -0.02117,0.01985 -4.760838,2.581572 -10.532603,5.692727 -5.771765,3.111155 -10.557897,5.693135 -10.635849,5.737733 l -0.141732,0.08109 z"
     style="fill:#555555;stroke-width:0.0470588" />
</svg>
